<svg width="40" height="40" viewBox="0 0 28 28" fill="none" xmlns="http://www.w3.org/2000/svg">
<path d="M15.4583 3.30555C15.7211 4.18135 15.9049 5.05715 17.3602 5.89742C18.9915 6.34032 19.789 5.9013 20.5309 5.40668C21.3074 4.88907 21.5357 5.0413 21.8465 5.34758L22.2496 5.75042C22.2926 5.79338 22.3355 5.83635 22.3892 5.89006L22.5933 6.09415C22.9371 6.43788 23.0746 6.57538 22.5933 7.46908L22.4772 7.6829C22.0802 8.41421 21.7091 9.16777 22.1056 10.6472C22.946 12.1134 23.8202 12.3668 24.6945 12.5417C25.6095 12.7247 25.6633 12.9938 25.6665 13.4301L25.6667 14.4861C25.6667 14.9722 25.6667 15.1667 24.6945 15.4583L24.4611 15.5274C23.6634 15.7637 22.8682 16.0342 22.1026 17.3602C21.6597 18.9914 22.0987 19.789 22.5933 20.5309C23.1433 21.3559 22.9371 21.5621 22.5933 21.9058L22.3892 22.1099C22.2818 22.2173 22.2174 22.2818 22.1099 22.3892L21.9059 22.5933C21.5621 22.937 21.4246 23.0745 20.5309 22.5933L20.3171 22.4772C19.5856 22.08 18.8319 21.7089 17.3518 22.1058C15.8866 22.9462 15.6332 23.8203 15.4583 24.6944C15.2753 25.6095 15.0062 25.6633 14.5699 25.6665L13.5139 25.6667C13.0278 25.6667 12.8333 25.6667 12.5417 24.6944C12.2789 23.8186 12.0951 22.9428 10.6398 22.1026C9.00856 21.6597 8.21103 22.0987 7.46909 22.5933C6.69265 23.1109 6.4643 22.9587 6.15355 22.6524L5.89007 22.3892C5.83636 22.3355 5.7934 22.2925 5.75043 22.2496L5.4067 21.9058C5.06297 21.5621 4.92546 21.4246 5.4067 20.5309L5.5806 20.21C5.95412 19.5108 6.27149 18.7605 5.89473 17.3538C5.05457 15.8868 4.18007 15.6332 3.30557 15.4583C2.39053 15.2753 2.33671 15.0062 2.33354 14.5699L2.33334 13.5139C2.33334 13.0278 2.33334 12.8333 3.30557 12.5417C4.18137 12.2789 5.05717 12.0951 5.89744 10.6398C6.34033 9.00854 5.90131 8.21102 5.4067 7.46908C4.85673 6.64411 5.06297 6.43788 5.4067 6.09415L5.68464 5.81621C5.73029 5.77056 5.77057 5.73028 5.81622 5.68462L6.09416 5.40668C6.4379 5.06295 6.5754 4.92545 7.46909 5.40668L7.79005 5.58058C8.48905 5.95402 9.23916 6.27132 10.6452 5.89498C12.1132 5.05476 12.3667 4.18015 12.5417 3.30555C12.7247 2.39052 12.9938 2.33669 13.4301 2.33353L14.4861 2.33333C14.9722 2.33333 15.1667 2.33333 15.4583 3.30555ZM14 8.50166C10.9624 8.50166 8.50001 10.9641 8.50001 14.0017C8.50001 17.0392 10.9624 19.5017 14 19.5017C17.0376 19.5017 19.5 17.0392 19.5 14.0017C19.5 10.9641 17.0376 8.50166 14 8.50166Z" fill="#5046E6"/>
</svg>
