<svg width="24" height="25" viewBox="0 0 24 25" fill="none" xmlns="http://www.w3.org/2000/svg">
<path d="M16.0001 4.50458C16.4972 4.50458 16.9001 4.90752 16.9001 5.40458V20.6046C16.9001 21.1016 16.4972 21.5046 16.0001 21.5046C15.503 21.5046 15.1001 21.1016 15.1001 20.6046V5.40458C15.1001 4.90752 15.503 4.50458 16.0001 4.50458Z" fill="#5046E6"/>
<path d="M4.0001 6.50232C4.49716 6.50232 4.9001 6.90526 4.9001 7.40232V20.6C4.9001 21.0971 4.49716 21.5 4.0001 21.5C3.50304 21.5 3.1001 21.0971 3.1001 20.6V7.40232C3.1001 6.90526 3.50304 6.50232 4.0001 6.50232Z" fill="#5046E6"/>
<path d="M8.0001 9.50403C8.49715 9.50403 8.9001 9.90697 8.9001 10.404V20.604C8.9001 21.1011 8.49715 21.504 8.0001 21.504C7.50304 21.504 7.1001 21.1011 7.1001 20.604V10.404C7.1001 9.90697 7.50304 9.50403 8.0001 9.50403Z" fill="#5046E6"/>
<path d="M12.9001 17.4023C12.9001 16.9053 12.4972 16.5023 12.0001 16.5023C11.503 16.5023 11.1001 16.9053 11.1001 17.4023V20.6023C11.1001 21.0994 11.503 21.5023 12.0001 21.5023C12.4972 21.5023 12.9001 21.0994 12.9001 20.6023V17.4023Z" fill="#5046E6"/>
<path d="M20.9001 14.4046C20.9001 13.9075 20.4972 13.5046 20.0001 13.5046C19.503 13.5046 19.1001 13.9075 19.1001 14.4046V20.6046C19.1001 21.1016 19.503 21.5046 20.0001 21.5046C20.4972 21.5046 20.9001 21.1016 20.9001 20.6046L20.9001 14.4046Z" fill="#5046E6"/>
</svg>
