<svg width="20" height="20" viewBox="0 0 20 20" fill="none" xmlns="http://www.w3.org/2000/svg">
<path opacity="1" d="M3.40948 0.584975C2.62952 -0.194991 1.36494 -0.194991 0.584975 0.584975C-0.194992 1.36494 -0.194991 2.62952 0.584975 3.40948L7.17549 10L0.584975 16.5905C-0.194991 17.3705 -0.194992 18.6351 0.584975 19.415C1.36494 20.195 2.62952 20.195 3.40948 19.415L10 12.8245L16.5905 19.415C17.3705 20.195 18.6351 20.195 19.415 19.415C20.195 18.6351 20.195 17.3705 19.415 16.5905L12.8245 10L19.415 3.40948C20.195 2.62952 20.195 1.36494 19.415 0.584975C18.6351 -0.194991 17.3705 -0.194992 16.5905 0.584975L10 7.17549L3.40948 0.584975Z" fill="#171717"/>
</svg>
