<svg width="40" height="40" viewBox="0 0 40 40" fill="none" xmlns="http://www.w3.org/2000/svg">
<path fill-rule="evenodd" clip-rule="evenodd" d="M14.7959 4.28571L18.5714 4.28571C19.3603 4.28571 19.9999 4.9253 19.9999 5.71428C19.9999 6.50326 19.3603 7.14285 18.5714 7.14285H14.8571C13.2334 7.14285 12.1015 7.14396 11.2203 7.21596C10.3557 7.28659 9.85905 7.41827 9.48283 7.60996C8.67642 8.02085 8.02079 8.67648 7.6099 9.48289C7.41821 9.85911 7.28653 10.3558 7.2159 11.2203C7.1439 12.1015 7.14279 13.2334 7.14279 14.8571V25.1429C7.14279 26.7666 7.1439 27.8984 7.2159 28.7796C7.28653 29.6442 7.41821 30.1409 7.6099 30.5171C8.02079 31.3235 8.67642 31.9791 9.48283 32.39C9.85905 32.5817 10.3557 32.7134 11.2203 32.784C12.1015 32.856 13.2334 32.8571 14.8571 32.8571H18.5714C19.3603 32.8571 19.9999 33.4967 19.9999 34.2857C19.9999 35.0747 19.3603 35.7143 18.5714 35.7143H14.7959C13.2476 35.7143 11.9989 35.7143 10.9876 35.6317C9.9464 35.5466 9.03184 35.3669 8.18571 34.9358C6.8417 34.2509 5.74898 33.1582 5.06417 31.8142C4.63305 30.9681 4.45331 30.0535 4.36824 29.0123C4.28562 28.0011 4.28563 26.7523 4.28564 25.204V14.796C4.28563 13.2477 4.28562 11.9989 4.36824 10.9877C4.45331 9.94646 4.63305 9.03191 5.06417 8.18577C5.74898 6.84176 6.8417 5.74904 8.18571 5.06423C9.03184 4.63311 9.9464 4.45337 10.9876 4.3683C11.9989 4.28568 13.2477 4.28569 14.7959 4.28571ZM27.5612 13.2756C28.1191 12.7177 29.0236 12.7177 29.5815 13.2756L35.2958 18.9898C35.5637 19.2578 35.7142 19.6211 35.7142 20C35.7142 20.3789 35.5637 20.7422 35.2958 21.0101L29.5815 26.7244C29.0236 27.2823 28.1191 27.2823 27.5612 26.7244C27.0033 26.1665 27.0033 25.262 27.5612 24.7041L30.8368 21.4286H17.1428C16.3538 21.4286 15.7142 20.789 15.7142 20C15.7142 19.211 16.3538 18.5714 17.1428 18.5714H30.8368L27.5612 15.2959C27.0033 14.738 27.0033 13.8334 27.5612 13.2756Z" fill="#5046E6"/>
</svg>
