<svg width="28" height="28" viewBox="0 0 28 28" fill="none" xmlns="http://www.w3.org/2000/svg">
<path d="M11.0319 23.4877C10.3484 26.2407 11.3747 26.8111 13.2107 24.8012L20.9228 15.9396C22.7071 13.7617 22.2602 12.0119 19.6906 11.5744L15.9722 10.8858C15.755 10.8456 15.6115 10.6369 15.6518 10.4197C15.6531 10.4125 15.6546 10.4054 15.6563 10.3983L17.0872 4.4944C17.7727 1.72389 16.6302 1.22216 14.9164 3.1855C12.454 5.96194 10.5828 8.05932 9.30261 9.47765C8.8563 9.97214 8.13789 10.744 7.14739 11.7932C4.97659 14.202 6.1191 15.949 8.62997 16.3865L12.1836 17.0235C12.401 17.0625 12.5457 17.2704 12.5067 17.4878C12.5052 17.4962 12.5034 17.5045 12.5014 17.5127L11.0319 23.4877Z" fill="#5046E6"/>
</svg>
