<svg width="40" height="40" viewBox="0 0 40 40" fill="none" xmlns="http://www.w3.org/2000/svg">
<path d="M20 36.4286C17.5818 36.4286 15.7143 35.1786 15.7143 32.8571H24.2857C24.2857 35.1786 22.4182 36.4286 20 36.4286ZM30.7066 24.2857C30.7066 27.1428 34.2857 27.8571 34.2857 29.2857C34.2857 30.7143 33.5714 31.4286 30.7143 31.4286H9.28571C6.42857 31.4286 5.71429 30.7143 5.71429 29.2857C5.71429 27.8571 9.28571 27.1428 9.28571 24.2857V18.5714C9.28571 11.4286 12.8571 5.71428 18.5714 5.71428C18.5714 4.64285 19.2857 4.28571 20 4.28571C20.7143 4.28571 21.4286 4.64285 21.4286 5.71428C27.1429 5.71428 30.7066 11.4286 30.7066 18.5714V24.2857Z" fill="#5046E6"/>
</svg>
