<svg width="25" height="25" viewBox="0 0 25 25" fill="none" xmlns="http://www.w3.org/2000/svg">
<path d="M10.9758 2.04722C11.3245 1.69853 11.8898 1.69853 12.2385 2.04722L14.9171 4.72579C15.2657 5.07447 15.2657 5.6398 14.9171 5.98848L12.2385 8.66705C11.8898 9.01573 11.3245 9.01573 10.9758 8.66705C10.6271 8.31837 10.6271 7.75304 10.9758 7.40436L12.1191 6.25997C8.35131 6.45793 5.35714 9.57573 5.35714 13.3928C5.35714 17.3377 8.55511 20.5357 12.5 20.5357C16.4449 20.5357 19.6429 17.3377 19.6429 13.3928C19.6429 11.6118 18.9897 9.93462 17.8268 8.63397C17.4981 8.26636 17.5297 7.70192 17.8973 7.37325C18.2649 7.04458 18.8293 7.07614 19.158 7.44375C20.6108 9.06868 21.4286 11.1683 21.4286 13.3928C21.4286 18.324 17.4311 22.3214 12.5 22.3214C7.56888 22.3214 3.57143 18.324 3.57143 13.3928C3.57143 8.58349 7.37391 4.66226 12.1365 4.47154L10.9758 3.30991C10.6271 2.96123 10.6271 2.3959 10.9758 2.04722Z" fill="#5046E6"/>
</svg>
